<?xml version="1.0" encoding="UTF-8"?>
<svg id="Capa_2" data-name="Capa 2" xmlns="http://www.w3.org/2000/svg" xmlns:xlink="http://www.w3.org/1999/xlink" viewBox="0 0 1080 1080">
  <defs>
    <style>
      .cls-1 {
        fill: #fff;
      }

      .cls-2 {
        fill: url(#Degradado_sin_nombre_3);
      }

      .cls-3 {
        fill: url(#Degradado_sin_nombre_2);
      }

      .cls-4 {
        fill: url(#Degradado_sin_nombre_5);
      }

      .cls-5 {
        fill: url(#Degradado_sin_nombre_4);
      }
    </style>
    <radialGradient id="Degradado_sin_nombre_5" data-name="Degradado sin nombre 5" cx="2947.59" cy="380.17" fx="2947.59" fy="380.17" r="56.54" gradientTransform="translate(34762.05 -12476.01) rotate(164.25) scale(12.2 -8.79)" gradientUnits="userSpaceOnUse">
      <stop offset="0" stop-color="#ff005f"/>
      <stop offset="1" stop-color="#fc01d8"/>
    </radialGradient>
    <radialGradient id="Degradado_sin_nombre_2" data-name="Degradado sin nombre 2" cx="2704.7" cy="659.34" fx="2704.7" fy="659.34" r="56.54" gradientTransform="translate(10953.11 42402.56) rotate(-90) scale(15.25 -16.18)" gradientUnits="userSpaceOnUse">
      <stop offset="0" stop-color="#fc0"/>
      <stop offset=".12" stop-color="#fc0"/>
      <stop offset=".57" stop-color="#fe4a05"/>
      <stop offset=".69" stop-color="#ff0f3f"/>
      <stop offset="1" stop-color="#fe0657" stop-opacity="0"/>
    </radialGradient>
    <radialGradient id="Degradado_sin_nombre_3" data-name="Degradado sin nombre 3" cx="2463.11" cy="802.75" fx="2463.11" fy="802.75" r="70.2" gradientTransform="translate(-1121.13 14546.46) rotate(-59.87) scale(5.08 -6.61)" gradientUnits="userSpaceOnUse">
      <stop offset="0" stop-color="#fc0"/>
      <stop offset="1" stop-color="#fc0" stop-opacity="0"/>
    </radialGradient>
    <radialGradient id="Degradado_sin_nombre_4" data-name="Degradado sin nombre 4" cx="2955.61" cy="815.73" fx="2955.61" fy="815.73" r="72.45" gradientTransform="translate(26234.81 -10021.64) rotate(164.27) scale(9.42 -3.21)" gradientUnits="userSpaceOnUse">
      <stop offset="0" stop-color="#780cff"/>
      <stop offset="1" stop-color="#820bff" stop-opacity="0"/>
    </radialGradient>
  </defs>
  <g id="Capa_1-2" data-name="Capa 1">
    <g>
      <path class="cls-4" d="m540.18,0C314.73,0,248.8.23,235.98,1.3c-46.26,3.85-75.05,11.13-106.42,26.75-24.17,12.01-43.23,25.92-62.05,45.43C33.25,109.06,12.49,152.82,4.97,204.85,1.32,230.11.25,235.26.04,364.27-.05,407.28.04,463.87.04,539.79c0,225.32.25,291.21,1.33,304,3.74,45.03,10.8,73.36,25.75,104.35,28.57,59.32,83.14,103.85,147.43,120.47,22.26,5.73,46.85,8.89,78.41,10.39,13.37.58,149.68,1,286.06,1s272.77-.17,285.81-.83c36.55-1.72,57.77-4.57,81.23-10.63,64.7-16.7,118.28-60.57,147.43-120.72,14.66-30.24,22.09-59.65,25.46-102.33.73-9.31,1.04-157.67,1.04-305.83s-.33-296.28-1.06-305.58c-3.41-43.37-10.84-72.53-25.97-103.36-12.42-25.23-26.21-44.08-46.22-63.34-35.72-34.13-79.42-54.9-131.48-62.41-25.23-3.65-30.25-4.73-159.33-4.95h-175.76Z"/>
      <path class="cls-3" d="m540.18,0C314.73,0,248.8.23,235.98,1.3c-46.26,3.85-75.05,11.13-106.42,26.75-24.17,12.01-43.23,25.92-62.05,45.43C33.25,109.06,12.49,152.82,4.97,204.85,1.32,230.11.25,235.26.04,364.27-.05,407.28.04,463.87.04,539.79c0,225.32.25,291.21,1.33,304,3.74,45.03,10.8,73.36,25.75,104.35,28.57,59.32,83.14,103.85,147.43,120.47,22.26,5.73,46.85,8.89,78.41,10.39,13.37.58,149.68,1,286.06,1s272.77-.17,285.81-.83c36.55-1.72,57.77-4.57,81.23-10.63,64.7-16.7,118.28-60.57,147.43-120.72,14.66-30.24,22.09-59.65,25.46-102.33.73-9.31,1.04-157.67,1.04-305.83s-.33-296.28-1.06-305.58c-3.41-43.37-10.84-72.53-25.97-103.36-12.42-25.23-26.21-44.08-46.22-63.34-35.72-34.13-79.42-54.9-131.48-62.41-25.23-3.65-30.25-4.73-159.33-4.95h-175.76Z"/>
      <path class="cls-2" d="m540.18,0C314.73,0,248.8.23,235.98,1.3c-46.26,3.85-75.05,11.13-106.42,26.75-24.17,12.01-43.23,25.92-62.05,45.43C33.25,109.06,12.49,152.82,4.97,204.85,1.32,230.11.25,235.26.04,364.27-.05,407.28.04,463.87.04,539.79c0,225.32.25,291.21,1.33,304,3.74,45.03,10.8,73.36,25.75,104.35,28.57,59.32,83.14,103.85,147.43,120.47,22.26,5.73,46.85,8.89,78.41,10.39,13.37.58,149.68,1,286.06,1s272.77-.17,285.81-.83c36.55-1.72,57.77-4.57,81.23-10.63,64.7-16.7,118.28-60.57,147.43-120.72,14.66-30.24,22.09-59.65,25.46-102.33.73-9.31,1.04-157.67,1.04-305.83s-.33-296.28-1.06-305.58c-3.41-43.37-10.84-72.53-25.97-103.36-12.42-25.23-26.21-44.08-46.22-63.34-35.72-34.13-79.42-54.9-131.48-62.41-25.23-3.65-30.25-4.73-159.33-4.95h-175.76Z"/>
      <path class="cls-5" d="m540.18,0C314.73,0,248.8.23,235.98,1.3c-46.26,3.85-75.05,11.13-106.42,26.75-24.17,12.01-43.23,25.92-62.05,45.43C33.25,109.06,12.49,152.82,4.97,204.85,1.32,230.11.25,235.26.04,364.27-.05,407.28.04,463.87.04,539.79c0,225.32.25,291.21,1.33,304,3.74,45.03,10.8,73.36,25.75,104.35,28.57,59.32,83.14,103.85,147.43,120.47,22.26,5.73,46.85,8.89,78.41,10.39,13.37.58,149.68,1,286.06,1s272.77-.17,285.81-.83c36.55-1.72,57.77-4.57,81.23-10.63,64.7-16.7,118.28-60.57,147.43-120.72,14.66-30.24,22.09-59.65,25.46-102.33.73-9.31,1.04-157.67,1.04-305.83s-.33-296.28-1.06-305.58c-3.41-43.37-10.84-72.53-25.97-103.36-12.42-25.23-26.21-44.08-46.22-63.34-35.72-34.13-79.42-54.9-131.48-62.41-25.23-3.65-30.25-4.73-159.33-4.95h-175.76Z"/>
      <path class="cls-1" d="m540.22,138.67c-109.05,0-122.74.48-165.57,2.42-42.75,1.96-71.93,8.72-97.46,18.64-26.41,10.25-48.81,23.96-71.13,46.27-22.34,22.3-36.06,44.69-46.35,71.07-9.96,25.52-16.73,54.69-18.66,97.39-1.92,42.8-2.42,56.48-2.42,165.46s.49,122.61,2.43,165.41c1.97,42.72,8.73,71.87,18.66,97.39,10.26,26.39,23.98,48.78,46.31,71.08,22.31,22.32,44.71,36.06,71.11,46.31,25.55,9.92,54.74,16.69,97.48,18.64,42.83,1.95,56.51,2.42,165.56,2.42s122.71-.48,165.54-2.42c42.75-1.96,71.96-8.72,97.51-18.64,26.4-10.25,48.77-23.99,71.08-46.31,22.34-22.3,36.06-44.69,46.35-71.07,9.87-25.52,16.65-54.69,18.66-97.39,1.92-42.8,2.43-56.44,2.43-165.42s-.5-122.65-2.43-165.45c-2.01-42.72-8.78-71.87-18.66-97.39-10.29-26.39-24.01-48.78-46.35-71.08-22.34-22.32-44.67-36.03-71.11-46.27-25.6-9.92-54.8-16.69-97.54-18.64-42.83-1.95-56.47-2.42-165.56-2.42h.13Zm-36.02,72.31c10.69-.02,22.62,0,36.02,0,107.21,0,119.92.38,162.26,2.31,39.15,1.79,60.4,8.33,74.55,13.82,18.74,7.27,32.1,15.97,46.14,30.01,14.05,14.04,22.75,27.42,30.05,46.14,5.5,14.13,12.05,35.36,13.83,74.48,1.92,42.3,2.34,55.01,2.34,162.09s-.42,119.79-2.34,162.09c-1.79,39.12-8.33,60.36-13.83,74.48-7.28,18.73-16,32.06-30.05,46.09-14.05,14.04-27.4,22.74-46.14,30.01-14.14,5.52-35.4,12.04-74.55,13.83-42.33,1.92-55.05,2.34-162.26,2.34s-119.93-.42-162.26-2.34c-39.15-1.81-60.4-8.34-74.56-13.83-18.74-7.27-32.12-15.97-46.18-30.01-14.05-14.04-22.75-27.39-30.05-46.12-5.5-14.13-12.05-35.36-13.83-74.48-1.92-42.3-2.31-55.01-2.31-162.16s.38-119.79,2.31-162.09c1.79-39.12,8.33-60.36,13.83-74.5,7.28-18.73,16-32.1,30.05-46.14,14.05-14.04,27.44-22.74,46.18-30.03,14.15-5.52,35.41-12.04,74.56-13.84,37.04-1.67,51.4-2.17,126.24-2.26v.1Zm250.37,66.62c-26.6,0-48.19,21.54-48.19,48.13s21.58,48.15,48.19,48.15,48.19-21.57,48.19-48.15-21.58-48.15-48.19-48.15v.02Zm-214.34,56.26c-113.88,0-206.21,92.26-206.21,206.06s92.33,206.02,206.21,206.02,206.18-92.22,206.18-206.02-92.31-206.06-206.19-206.06h0Zm0,72.31c73.92,0,133.85,59.88,133.85,133.75s-59.93,133.75-133.85,133.75-133.85-59.89-133.85-133.75,59.92-133.75,133.85-133.75h0Z"/>
    </g>
  </g>
</svg>