<?xml version="1.0" encoding="UTF-8"?>
<svg id="Capa_2" data-name="Capa 2" xmlns="http://www.w3.org/2000/svg" viewBox="0 0 1080 1080">
  <defs>
    <style>
      .cls-1 {
        fill: #fff;
      }
    </style>
  </defs>
  <g id="Capa_1-2" data-name="Capa 1">
    <g>
      <rect width="1080" height="1080" rx="162" ry="162"/>
      <path class="cls-1" d="m582.86,441.53l233.49-271.54c.08-.09.2-.14.32-.14h62.77c.36,0,.56.42.32.7l-268.66,312.47c-.13.14-.14.36-.04.51l292.52,425.94c.19.28-.01.66-.36.66h-214.61c-.14,0-.27-.06-.34-.18l-196.98-286.81c-.15-.23-.48-.24-.66-.03l-246.66,286.88c-.08.09-.2.14-.32.14h-62.77c-.36,0-.56-.42-.32-.7l281.84-327.8c.13-.14.14-.36.04-.51L180.45,170.52c-.19-.28.01-.66.36-.66h214.62c.14,0,.27.06.34.18l186.43,271.47c.15.23.48.24.66.03m-315.2-223.58c-.32,0-.5.36-.32.62l451.04,645.53c.08.1.19.17.32.17h97.15c.32,0,.5-.36.32-.62L365.12,218.12c-.08-.1-.19-.17-.32-.17h-97.14Z"/>
    </g>
  </g>
</svg>